<svg version="1.1" id="Layer_1" xmlns="http://www.w3.org/2000/svg" xmlns:xlink="http://www.w3.org/1999/xlink" x="0px" y="0px"
	 width="100%" viewBox="0 0 1024 1024" enable-background="new 0 0 1024 1024" xml:space="preserve">
<path fill="#000000" opacity="1.000000" stroke="none" 
	d="
M1025.000000,314.531342 
	C1021.707153,318.717316 1022.706421,324.368103 1018.842407,328.449951 
	C1015.087891,322.946442 1009.735046,320.000732 1003.664734,318.017242 
	C998.435974,316.308716 998.108704,312.201447 998.907288,307.496918 
	C1002.203369,288.081085 1002.380859,268.398041 1003.747314,248.817749 
	C1004.294556,240.976562 1002.836731,233.193588 1002.797791,225.369492 
	C1002.776611,221.119202 1000.874512,219.783707 996.835938,220.435791 
	C990.623230,221.438904 984.416138,221.618530 977.799683,218.999786 
	C985.950439,216.890198 989.443481,212.046722 987.026733,204.126434 
	C990.115112,203.389893 990.888123,205.464905 992.125916,206.606659 
	C993.778687,208.131058 995.457214,208.633072 997.573364,207.665527 
	C999.660278,206.711365 999.843994,205.003342 999.643005,203.070984 
	C998.654541,193.565292 996.011047,184.493454 992.578064,175.609207 
	C983.008423,150.843994 970.735107,127.771996 951.355713,109.083588 
	C928.607483,87.146393 902.132751,71.741776 871.594482,63.416481 
	C869.668091,62.891323 867.797974,61.760777 865.873901,61.692112 
	C854.992310,61.303799 849.571594,54.218666 845.703247,45.378498 
	C844.571533,42.792110 840.982239,40.208153 843.041077,37.437393 
	C845.232666,34.487949 849.225220,36.062431 852.457336,36.505989 
	C897.483154,42.685211 937.048889,60.468201 969.877380,92.260101 
	C990.711487,112.436325 1005.174683,136.730392 1015.214050,163.808334 
	C1017.471497,169.897171 1019.876465,175.911972 1021.284363,182.283051 
	C1021.924133,185.178116 1022.451599,188.178680 1024.713867,190.798172 
	C1025.000000,232.020889 1025.000000,273.041779 1025.000000,314.531342 
z"/>
<path fill="#000000" opacity="1.000000" stroke="none" 
	d="
M421.038483,602.066284 
	C388.175537,585.465881 360.964081,562.659668 338.982910,533.615295 
	C330.237427,522.059570 321.279327,510.629883 315.355560,497.237030 
	C314.696350,495.746582 314.078461,494.237823 313.181915,492.126526 
	C319.423828,492.126526 325.131134,492.055725 330.834381,492.176239 
	C332.262848,492.206390 332.907898,493.730011 333.770203,494.720703 
	C339.037842,500.772644 344.732544,506.380737 351.276154,511.046906 
	C356.303253,514.631714 359.202667,520.003296 362.847534,524.696472 
	C393.053284,563.590332 432.959747,587.475342 480.406982,598.011780 
	C526.889160,608.333923 571.922058,602.786194 614.629517,580.507935 
	C650.829712,561.624390 678.538086,534.135071 699.490479,499.453278 
	C701.088684,496.807922 702.953125,494.661591 705.603394,493.061066 
	C719.925537,484.411774 726.745972,471.016541 729.659729,455.083679 
	C731.624573,444.339355 731.300720,433.744080 726.837341,423.743744 
	C723.224915,415.649811 725.597351,407.578918 726.128418,399.638092 
	C727.853882,373.839905 725.235107,348.670776 715.957764,324.527802 
	C691.089905,259.812500 647.035950,214.991592 579.601074,195.141891 
	C532.396484,181.247025 485.980011,184.760406 440.973785,203.992859 
	C409.921204,217.262527 384.447479,238.151062 363.452332,264.648315 
	C347.318115,285.010742 335.568970,307.711761 327.427948,332.173309 
	C324.709930,340.340271 321.380280,346.635620 313.764496,351.077057 
	C307.115051,354.955048 302.615234,361.490601 297.843384,367.498901 
	C296.938416,368.638397 296.283295,370.081268 294.092896,370.391174 
	C296.129700,360.812225 297.993683,351.468048 300.111481,342.181732 
	C312.433624,288.151245 341.028748,244.329269 383.824799,209.566422 
	C406.434265,191.200958 432.588593,179.773758 460.296387,171.571930 
	C490.565247,162.611984 521.306641,160.780640 552.624146,164.475433 
	C578.722290,167.554459 603.560608,174.787308 626.953186,186.361801 
	C656.512451,200.987564 680.671265,222.428558 701.475037,247.957260 
	C725.536865,277.484009 739.846558,311.383484 746.949951,348.372253 
	C751.845032,373.861664 751.303711,399.692139 748.555969,425.473267 
	C743.498779,472.922760 724.544983,514.263000 692.898865,549.625488 
	C656.766846,590.000732 611.957458,614.687622 558.162415,623.633667 
	C512.141174,631.286804 468.782593,623.761963 426.881073,604.598938 
	C425.065063,603.768433 423.214050,603.014587 421.038483,602.066284 
z"/>
<path fill="#000000" opacity="1.000000" stroke="none" 
	d="
M597.456055,380.568665 
	C568.520447,355.389282 535.168030,340.285400 497.780334,334.736786 
	C465.192322,329.900482 432.727875,331.170410 401.038452,341.319336 
	C380.778931,347.807648 361.537964,356.437653 344.550690,369.484009 
	C339.941986,373.023499 335.466217,376.790985 331.310425,380.844513 
	C328.856537,383.238037 326.424988,384.552399 322.985504,384.449432 
	C317.158722,384.275055 311.323425,384.404877 305.492920,384.321411 
	C303.900055,384.298645 302.135284,384.706329 300.567322,382.997467 
	C302.832916,379.152771 306.417236,376.492981 309.557281,373.447021 
	C338.900452,344.983429 373.950470,327.500580 413.650238,318.458771 
	C436.493591,313.256104 459.625061,312.402405 482.659149,313.968445 
	C530.666626,317.232422 573.882141,333.208099 609.752563,366.375275 
	C614.471191,370.738342 620.499207,370.289398 626.065552,371.626923 
	C651.626343,377.768951 676.541443,385.433716 697.204285,402.730713 
	C714.385376,417.113098 720.990051,435.535126 717.284119,457.532532 
	C715.911682,465.678925 711.232788,472.219421 705.470703,477.979736 
	C701.751221,481.698059 697.328674,483.332428 691.984802,483.381287 
	C683.169189,483.461853 674.359558,484.089050 665.544861,484.418671 
	C657.609253,484.715424 657.369690,484.590271 657.766663,476.465485 
	C658.384460,463.819763 656.168640,452.219269 648.671570,441.475861 
	C636.790039,424.449310 614.969666,419.715820 599.537292,423.020935 
	C581.349487,426.916199 569.359070,441.408813 566.224487,461.097870 
	C565.308472,466.852234 566.385315,472.325836 567.184387,477.887054 
	C567.717590,481.597443 566.744507,483.254547 562.478333,483.243713 
	C519.993713,483.135742 477.508575,483.246643 435.023560,483.243378 
	C421.852142,483.242371 421.989471,483.181610 423.137146,470.289185 
	C423.563934,465.494476 422.813049,460.685516 421.316650,456.038147 
	C420.784363,454.385010 419.471344,452.766174 420.789978,450.611755 
	C423.930847,450.661163 424.678406,453.200684 425.390717,455.432922 
	C427.071167,460.699188 430.781647,462.874603 435.829102,464.976044 
	C443.603088,468.212555 451.386078,467.633789 459.296600,467.926117 
	C481.823639,468.758636 504.164001,465.619659 526.616394,464.949677 
	C534.272766,464.721191 541.928528,464.798523 549.568054,465.697784 
	C555.760132,466.426697 559.656860,463.009094 560.030762,456.815948 
	C560.122498,455.296906 560.309509,453.843811 561.047119,452.487091 
	C566.870972,441.775543 575.040588,432.739685 584.468018,425.520538 
	C591.838440,419.876526 600.979919,416.180603 610.716858,415.314789 
	C614.258606,414.999847 617.751526,414.762909 615.363464,409.538544 
	C614.767761,408.235352 615.695007,406.847198 616.944397,406.181091 
	C624.621399,402.087982 631.235779,396.190369 641.625305,401.469849 
	C648.031555,404.725220 656.528931,404.816681 665.434570,402.144073 
	C660.054688,398.021484 654.865845,396.725098 649.918274,395.180878 
	C637.656799,391.353912 624.998108,389.183990 612.296570,387.529266 
	C606.554199,386.781128 601.684509,385.001495 597.456055,380.568665 
M654.903259,422.607513 
	C666.740906,434.647552 680.951599,440.753815 698.010498,440.696991 
	C697.419617,427.120392 685.139648,413.088776 672.731873,411.234161 
	C666.326050,410.276703 659.866211,409.681274 653.431030,408.919983 
	C651.209045,408.657104 648.957703,407.419373 646.523376,409.211731 
	C647.434143,414.571686 651.136475,418.205170 654.903259,422.607513 
z"/>
<path fill="#000000" opacity="1.000000" stroke="none" 
	d="
M225.673798,464.493927 
	C189.690887,450.114777 166.816437,423.183197 150.855225,389.429199 
	C147.016464,381.311157 143.493286,373.043701 139.844009,364.836517 
	C139.178482,363.339722 138.308243,361.869232 138.699097,360.076874 
	C140.060608,358.963898 141.526230,359.233856 142.937729,359.721527 
	C157.509247,364.755890 171.988068,370.076385 186.660049,374.797028 
	C200.511261,379.253571 213.471542,385.584351 226.263870,392.333008 
	C242.017349,400.643921 257.244171,409.842560 272.192993,419.537079 
	C277.269592,422.829346 279.716095,426.345093 279.551727,432.799500 
	C279.229828,445.437134 282.168243,457.514771 289.269440,468.292114 
	C290.064697,469.499084 291.243256,470.610657 290.655823,473.116608 
	C268.477875,476.001709 247.042465,472.129822 225.673798,464.493927 
z"/>
<path fill="#000000" opacity="1.000000" stroke="none" 
	d="
M820.917236,455.097107 
	C805.498230,460.861816 789.638062,461.236786 773.906677,462.264709 
	C767.173462,462.704681 760.365845,463.702637 753.542969,462.024567 
	C752.922424,458.970947 753.969910,456.238495 754.947632,453.708588 
	C759.060120,443.067810 760.956909,431.936005 762.689880,420.759430 
	C763.404175,416.152405 764.968384,412.191620 769.017395,409.398163 
	C773.293884,406.447876 776.396667,402.208038 780.143250,398.669800 
	C784.772461,394.298218 787.696960,394.524078 791.776917,399.395844 
	C792.522888,400.286560 793.172241,401.261261 793.830566,402.221649 
	C798.349670,408.813812 804.474609,410.267303 810.694214,405.377777 
	C816.247070,401.012421 822.328491,397.689026 828.391418,394.216705 
	C832.566467,391.825592 836.279297,388.850281 839.559082,385.152710 
	C845.914185,377.988098 854.636475,373.782135 862.263184,368.199921 
	C864.134583,366.830200 866.707458,366.780273 869.053650,367.020142 
	C876.878113,367.820099 882.983826,364.337097 888.223694,359.117737 
	C892.265869,355.091309 896.206726,351.150146 901.904968,349.443024 
	C905.670532,348.314911 906.797729,344.258698 909.359436,341.600220 
	C912.696045,350.073242 898.167786,385.561951 881.052551,410.365967 
	C866.189880,431.905518 845.963867,446.468658 820.917236,455.097107 
z"/>
<path fill="#000000" opacity="1.000000" stroke="none" 
	d="
M232.622131,221.354218 
	C234.035339,215.712021 234.499527,215.604630 239.210846,218.532867 
	C254.625351,228.113495 267.487457,240.674469 279.985748,253.609299 
	C289.119476,263.062012 298.169098,272.629089 305.409393,283.709503 
	C306.521271,285.411102 307.988708,286.983856 306.871216,289.130707 
	C299.928589,302.468079 295.421295,316.729462 291.149353,331.390411 
	C278.841614,329.151917 267.071289,325.932648 256.478821,320.094727 
	C229.949112,305.473236 209.517151,284.830536 197.212585,256.749359 
	C196.612595,255.380127 196.030411,253.979218 195.663849,252.536163 
	C194.674103,248.639816 191.817947,244.220688 196.082855,241.008987 
	C200.990295,237.313446 206.313980,234.101120 213.017014,237.986313 
	C218.589645,241.216324 220.713715,240.602036 222.970123,234.735428 
	C225.022949,229.398209 228.272751,225.282684 232.622131,221.354218 
z"/>
<path fill="#000000" opacity="1.000000" stroke="none" 
	d="
M379.502716,359.400116 
	C411.398529,345.490112 444.434296,339.247131 478.694458,341.897766 
	C509.047485,344.246185 538.019287,352.035919 563.848694,369.114410 
	C567.320190,371.409790 570.970459,373.433563 574.466614,375.693481 
	C576.645020,377.101593 579.154724,378.319763 579.499329,381.320190 
	C502.765869,382.385254 426.133514,381.592224 349.233490,382.007385 
	C349.410248,377.329803 352.319946,375.104614 355.230957,372.960754 
	C362.644714,367.500702 370.790192,363.327393 379.502716,359.400116 
z"/>
<path fill="#000000" opacity="1.000000" stroke="none" 
	d="
M725.723633,879.151733 
	C749.198181,880.455688 768.500977,872.390137 784.218262,855.664001 
	C787.052185,852.648254 789.825806,849.490051 791.655334,845.676758 
	C792.513367,843.888489 793.898376,842.996521 795.926086,842.699768 
	C803.645813,841.570251 810.924194,832.867737 808.157288,825.577637 
	C803.421997,813.100952 805.033875,799.809998 801.401733,787.377502 
	C793.230408,759.408142 775.502869,740.097656 746.833374,733.975586 
	C725.001587,729.313721 704.654724,735.359192 687.278503,750.259766 
	C677.149780,758.945374 670.040649,769.528870 664.902771,781.663940 
	C663.206177,785.670837 661.204285,789.539795 657.041687,791.646912 
	C656.131775,792.107422 655.186218,792.408752 654.188110,791.867310 
	C655.098755,760.163940 687.246948,726.373596 729.960693,723.103149 
	C756.891968,721.041077 779.154602,733.636414 795.619995,754.914917 
	C811.883301,775.932312 817.452759,799.806152 811.607849,826.125183 
	C811.888733,825.780090 812.321167,825.476562 812.428711,825.083984 
	C816.783508,809.180542 828.805786,800.091614 841.961365,792.142151 
	C847.362183,788.878723 853.111694,786.186768 858.743530,783.315063 
	C860.098450,782.624146 861.405518,781.993103 862.287231,780.680725 
	C864.015625,778.108215 866.525818,777.766785 869.504761,778.194397 
	C869.727600,778.854736 870.179871,779.491516 870.095947,780.047363 
	C866.373596,804.711060 854.925476,826.077698 826.385010,831.809387 
	C822.163574,832.657166 817.815063,833.028259 813.506897,833.235474 
	C810.497864,833.380188 809.128845,834.412170 807.670715,837.309631 
	C793.539307,865.390015 772.411987,885.282837 740.120422,888.896362 
	C717.228699,891.458008 696.268188,884.919128 679.125183,868.547119 
	C672.974609,862.673157 666.835510,856.779846 662.322632,849.496948 
	C660.915222,847.225647 658.035828,844.031189 660.657288,842.011108 
	C663.568787,839.767578 665.997681,843.212952 668.491089,845.194458 
	C680.636353,854.846130 689.889343,868.120117 705.029602,874.057800 
	C711.605469,876.636658 718.265320,878.470215 725.723633,879.151733 
z"/>
<path fill="#000000" opacity="1.000000" stroke="none" 
	d="
M283.213959,780.911926 
	C309.076599,774.454956 332.056946,779.674805 352.509918,795.933533 
	C356.849915,799.383545 361.807068,801.045044 366.910736,802.523926 
	C372.894867,804.257996 378.452881,806.876221 383.498291,810.451843 
	C391.795776,816.332336 393.375092,827.327637 387.133514,834.986267 
	C386.106720,836.246277 384.746552,837.948486 383.387787,838.102905 
	C376.869720,838.843445 374.719940,843.947144 372.022766,848.625732 
	C366.406891,858.367004 357.963074,864.885437 348.019165,869.734314 
	C344.611328,871.395996 341.124390,871.644958 337.044739,871.447144 
	C337.651001,867.222534 341.183746,865.357971 342.510101,862.287720 
	C345.732910,854.827637 350.330444,850.007507 359.371796,851.391174 
	C361.684906,851.745117 364.232025,850.570129 366.776764,850.077271 
	C362.756836,847.089417 364.682526,842.593506 371.502563,839.581604 
	C367.800964,839.254456 368.805115,836.754150 368.614441,834.751343 
	C368.010315,828.405151 367.663910,821.952454 360.551514,818.832947 
	C354.748108,816.287537 349.114532,816.584106 343.921295,820.043152 
	C338.796570,823.456482 336.214661,828.221130 337.880127,834.624573 
	C338.679871,837.699280 337.645599,839.164795 334.233459,839.480896 
	C321.256134,840.682922 308.305908,839.546509 295.344666,839.388489 
	C292.504059,839.353821 291.733246,837.937866 291.570892,835.328247 
	C291.396851,832.530090 290.986115,829.664795 290.125977,827.007690 
	C288.101257,820.753174 282.486053,816.798645 277.084290,817.431458 
	C269.316681,818.341431 262.078247,825.080444 261.426758,832.008606 
	C260.867279,837.958008 258.482635,839.161499 253.169754,836.247375 
	C249.472534,834.219360 247.963654,830.718994 246.987991,826.963745 
	C245.593002,821.594543 244.666473,815.807068 246.074677,810.658875 
	C247.243134,806.387146 248.379349,801.649597 252.139511,798.097839 
	C260.971039,789.755676 271.328400,784.440552 283.213959,780.911926 
M330.463470,807.846069 
	C342.250854,809.232300 354.188263,807.112244 365.988434,809.228821 
	C362.689545,808.099487 359.360077,807.105469 355.974854,806.366882 
	C353.464447,805.819153 351.269012,804.840576 349.320679,803.161011 
	C335.770081,791.479126 320.007629,785.686584 302.145172,785.973145 
	C288.664246,786.189331 276.147064,789.995544 265.328064,798.121155 
	C261.267792,801.170715 259.068359,806.925171 251.626114,805.024658 
	C256.620056,811.009827 252.707977,817.264771 255.050491,823.063721 
	C256.798798,819.467773 256.816498,816.156128 256.825745,812.854919 
	C256.835632,809.329102 258.562317,807.606079 262.077911,807.758850 
	C266.231232,807.939209 270.383209,808.375061 274.533905,808.353149 
	C292.847443,808.256348 311.160278,808.034668 330.463470,807.846069 
M379.713531,822.611877 
	C382.310181,822.891357 382.974274,821.636230 382.310791,819.334839 
	C381.013062,814.833313 373.088654,811.452209 368.272339,813.673096 
	C370.380951,818.477356 374.997253,820.130859 379.713531,822.611877 
z"/>
<path fill="#000000" opacity="1.000000" stroke="none" 
	d="
M728.996887,840.270447 
	C720.166443,840.202454 711.835510,840.107727 703.504883,840.124756 
	C699.589722,840.132751 697.251343,839.080017 697.539612,834.411621 
	C697.791443,830.333313 695.964355,826.600220 693.800232,823.188965 
	C690.933167,818.669556 684.376892,815.838623 679.545776,816.848755 
	C672.203247,818.384155 666.783203,823.701843 665.339417,830.661682 
	C664.905151,832.755188 665.916565,835.725769 662.538025,836.276245 
	C659.371399,836.792236 656.455566,835.938660 654.422363,833.422974 
	C648.270386,825.811340 649.107788,816.891785 650.320923,808.113098 
	C650.783813,804.763489 653.972717,805.388733 656.472595,805.742737 
	C659.141418,806.120667 659.628601,807.967224 659.103333,810.163025 
	C657.473877,816.975342 659.844543,823.189819 660.562561,826.522583 
	C657.611816,821.977783 664.005310,816.911621 666.231018,810.945007 
	C666.873230,809.223633 669.276062,808.985535 671.125122,809.028381 
	C688.432800,809.429688 705.705750,807.890930 723.027405,808.346863 
	C739.065063,808.768860 755.122498,808.436768 771.418091,807.801392 
	C761.362061,808.421509 755.887512,800.714661 748.598450,796.211853 
	C724.951416,781.604004 700.458252,781.991028 675.668274,793.336670 
	C671.810913,795.101990 668.882141,798.099487 665.875610,800.995178 
	C664.572693,802.250061 663.165894,803.527893 661.570007,804.317871 
	C659.025452,805.577393 655.801331,805.608093 654.140686,803.536804 
	C652.212402,801.131531 655.252380,799.449402 656.736389,797.872009 
	C668.511902,785.356262 683.452454,779.181396 700.194275,777.878906 
	C718.556641,776.450439 736.520142,778.328796 752.477539,788.937805 
	C753.862061,789.858337 755.441528,790.622498 756.535706,791.819946 
	C762.209290,798.027710 769.490967,800.921448 777.521423,802.377930 
	C784.975830,803.729980 791.125183,807.756165 796.905029,812.277039 
	C802.745483,816.845398 804.579834,827.154907 801.054626,833.197205 
	C797.358276,839.532837 788.483154,842.648804 781.377014,840.273438 
	C778.529358,839.321533 779.403992,837.303772 779.526367,835.379517 
	C780.173340,825.206055 772.698242,816.744263 763.475830,817.184570 
	C755.480225,817.566284 748.104370,825.418335 748.198120,833.448486 
	C748.275818,840.104187 748.276123,840.124329 741.492188,840.226562 
	C737.494202,840.286865 733.495117,840.271118 728.996887,840.270447 
M784.479919,812.163879 
	C782.810242,811.683655 780.879395,810.355286 779.739624,812.711426 
	C778.814148,814.624756 779.953186,816.429016 781.460022,817.434265 
	C784.185974,819.252869 787.142273,820.734619 790.049744,822.267212 
	C790.922058,822.726990 792.017151,822.882324 792.861938,822.184814 
	C793.922119,821.309448 793.678040,820.093018 793.294678,818.986755 
	C791.956726,815.125183 788.683289,813.620300 784.479919,812.163879 
z"/>
<path fill="#000000" opacity="1.000000" stroke="none" 
	d="
M649.069031,502.025146 
	C651.871948,499.309021 654.753174,498.299225 658.408203,498.760651 
	C664.086365,499.477600 668.813232,495.454315 674.327393,495.097107 
	C678.115967,494.851654 682.018921,492.851227 685.751282,495.380707 
	C674.266235,529.565979 593.842834,587.588989 559.378479,586.842712 
	C558.572083,585.403564 559.886841,584.748413 560.552551,583.946045 
	C576.465210,564.766724 588.769409,543.615112 595.730164,519.555359 
	C596.587891,516.590332 597.663452,514.794128 601.286621,516.085266 
	C616.386963,521.466492 630.028625,519.204895 641.902954,508.028595 
	C644.081360,505.978210 646.491821,504.174316 649.069031,502.025146 
z"/>
<path fill="#000000" opacity="1.000000" stroke="none" 
	d="
M323.435486,260.390442 
	C321.424896,263.477539 319.608002,266.258606 317.777191,269.030487 
	C317.699921,269.147522 317.493500,269.179260 317.026978,269.407227 
	C294.890198,247.852921 270.122437,229.657410 242.227661,215.353668 
	C248.564682,214.661926 251.921768,208.940399 257.946625,207.826492 
	C266.402710,206.263077 274.097046,208.363022 281.983582,210.486862 
	C289.787445,212.588440 293.134949,210.313385 292.760742,202.125839 
	C292.473877,195.848801 296.055603,190.261444 294.660645,183.813354 
	C298.009521,182.997086 300.427246,184.759384 302.785217,185.975266 
	C320.004089,194.854218 334.656006,207.054031 347.644562,221.307800 
	C352.281769,226.396667 351.972656,226.346756 347.144409,231.061722 
	C338.189117,239.806839 330.197845,249.381744 323.435486,260.390442 
z"/>
<path fill="#000000" opacity="1.000000" stroke="none" 
	d="
M276.843689,873.198364 
	C263.148407,860.715698 255.017883,849.697693 254.843796,843.320740 
	C258.605225,841.909180 261.671967,842.637329 264.637207,845.613892 
	C271.432892,852.435303 276.869415,860.442932 284.617432,866.491150 
	C298.714569,877.495605 314.722717,879.016968 331.494934,877.277771 
	C352.846924,875.063599 367.623566,862.381409 379.787567,845.904968 
	C381.340698,843.801331 382.777344,841.734497 385.586334,841.778931 
	C389.316132,841.837891 390.690552,839.581909 391.918488,836.550659 
	C395.287292,828.234436 395.022247,819.530579 394.568787,810.919922 
	C393.712433,794.658997 391.220245,778.502075 381.743103,764.849121 
	C360.109680,733.683472 312.647034,720.822998 280.803406,751.724792 
	C271.136780,761.105591 264.029938,771.869324 258.902222,784.137878 
	C257.129730,788.378662 255.174606,792.356812 249.057999,792.456360 
	C249.113083,786.892883 250.278519,781.764160 251.978058,776.802734 
	C262.401947,746.372375 294.256042,725.532104 324.287872,724.876892 
	C353.984222,724.229004 385.700897,745.539246 396.164032,773.421082 
	C402.590332,790.545593 405.679169,807.934204 401.404541,826.230469 
	C398.785004,837.442688 391.484222,845.729309 385.049744,854.521179 
	C375.501770,867.567261 363.153015,877.697449 347.902985,883.032166 
	C322.933594,891.766968 298.862579,890.244995 276.843689,873.198364 
z"/>
<path fill="#000000" opacity="1.000000" stroke="none" 
	d="
M462.651672,518.265015 
	C461.946594,515.795166 461.304626,513.725952 460.724792,511.639404 
	C459.791565,508.281464 458.445862,504.684418 464.413086,505.233124 
	C465.446075,505.328156 466.226196,504.567841 466.900665,503.767731 
	C471.500397,498.311340 474.106903,497.880737 480.766083,500.387115 
	C489.697388,503.748657 497.824707,501.001404 505.419281,496.196198 
	C508.734406,494.098663 512.173645,494.658539 515.506531,495.344482 
	C518.471558,495.954681 518.150818,498.814789 518.131165,501.124817 
	C517.884583,530.108948 517.614014,559.092896 517.329407,588.076660 
	C517.318481,589.194702 517.551147,590.426270 515.912781,591.837830 
	C489.194153,574.040039 471.703217,549.505615 462.651672,518.265015 
z"/>
<path fill="#000000" opacity="1.000000" stroke="none" 
	d="
M583.738831,513.671143 
	C577.682800,533.851074 568.614319,552.079346 555.662292,568.235046 
	C549.413879,576.029053 542.431702,583.174255 534.125854,588.879883 
	C533.051941,589.617615 532.109924,590.706604 530.465271,590.095825 
	C529.171448,588.384827 529.793640,586.327881 529.742126,584.409912 
	C529.036560,558.133728 530.567139,531.882385 530.652771,505.614532 
	C530.687622,494.933258 530.651672,494.852234 541.552856,494.710480 
	C550.036499,494.600128 558.523926,494.790741 567.008240,494.707764 
	C570.079773,494.677765 572.359131,495.679352 574.363220,498.072052 
	C576.377014,500.476440 578.701233,502.681183 581.154724,504.641296 
	C584.117432,507.008148 585.367554,509.661682 583.738831,513.671143 
z"/>
<path fill="#000000" opacity="1.000000" stroke="none" 
	d="
M348.786194,493.177673 
	C340.621735,482.639893 335.516205,471.258240 338.351532,458.137939 
	C342.682587,438.096527 365.665619,426.126709 385.924255,432.638184 
	C413.402374,441.470123 418.119995,469.455841 407.342224,487.874542 
	C395.049988,508.881500 367.460693,511.396942 348.786194,493.177673 
M386.838959,480.354462 
	C387.732269,479.162872 388.770935,478.053009 389.494446,476.765930 
	C393.182739,470.204712 392.834808,461.091919 388.790955,456.048462 
	C384.537811,450.743927 376.626770,448.121033 370.466949,449.973083 
	C363.751129,451.992340 358.069305,458.308014 357.801758,465.056183 
	C357.508423,472.454285 361.049500,478.227173 367.384735,481.905823 
	C373.773102,485.615265 380.266815,485.939178 386.838959,480.354462 
z"/>
<path fill="#000000" opacity="1.000000" stroke="none" 
	d="
M271.298462,401.656128 
	C244.399277,388.430054 216.038696,380.534729 187.906509,373.225128 
	C187.260452,371.662964 187.867462,370.795013 188.531296,370.591583 
	C194.532501,368.752808 199.099350,364.875122 203.636963,360.745697 
	C205.821457,358.757751 208.934952,358.056274 212.043518,357.985016 
	C219.535309,357.813293 227.008453,357.467590 234.476135,358.712036 
	C242.407410,360.033752 244.688858,358.763885 248.656204,351.837616 
	C249.479996,350.399414 250.548172,349.103394 251.453506,347.709259 
	C253.291641,344.878754 254.966827,342.076447 250.376907,340.101562 
	C249.214539,339.601471 248.446304,338.627686 249.218430,337.293182 
	C250.023056,335.902466 251.452148,335.853851 252.764236,336.217499 
	C259.333862,338.038239 265.904449,339.863220 272.426331,341.845734 
	C276.740997,343.157318 280.801422,345.070526 284.515869,347.695007 
	C286.445404,349.058350 287.758240,350.644928 287.099731,353.124725 
	C282.606171,370.046753 280.190826,387.305878 278.973785,404.914124 
	C275.707031,405.235718 274.040741,402.615875 271.298462,401.656128 
z"/>
<path fill="#000000" opacity="1.000000" stroke="none" 
	d="
M648.218079,467.083221 
	C647.802490,491.431427 638.240479,497.828644 620.413086,504.497162 
	C612.159607,507.584503 603.110840,505.188873 595.302490,501.067444 
	C581.487549,493.775513 572.181824,470.516571 577.636353,455.919373 
	C586.437561,432.366058 614.535889,423.937164 636.020752,440.913483 
	C644.279663,447.439209 647.908936,456.267212 648.218079,467.083221 
M628.680237,468.265961 
	C628.663940,467.270050 628.781616,466.250397 628.610168,465.281952 
	C627.293335,457.843811 622.819275,453.094482 615.730164,450.924103 
	C609.339905,448.967651 603.764587,450.876587 599.648804,455.935791 
	C595.137329,461.481323 593.894470,467.740234 597.262085,474.487640 
	C600.448486,480.872009 607.623291,484.925415 614.408386,484.048309 
	C622.351379,483.021515 626.603210,478.554596 628.680237,468.265961 
z"/>
<path fill="#000000" opacity="1.000000" stroke="none" 
	d="
M339.730103,428.670563 
	C347.490326,425.213654 353.455444,419.783173 359.566345,414.673889 
	C364.864258,410.244324 371.616791,407.478912 375.334778,401.171783 
	C375.683258,400.580597 376.712830,400.270782 377.488190,400.070831 
	C382.457977,398.789581 394.011475,403.912842 395.996521,408.813202 
	C398.846313,415.848419 404.075378,419.933655 410.768036,422.790375 
	C417.392578,425.618011 417.960693,427.104797 416.101562,433.878387 
	C415.585693,435.757843 415.377258,437.721619 414.944885,440.103333 
	C411.103607,438.483246 408.472076,435.478516 405.550751,433.018158 
	C387.326965,417.670258 360.826904,416.652832 343.208405,432.270233 
	C331.470825,442.674652 324.233459,455.847382 329.147705,472.751617 
	C331.196991,479.800842 329.368561,481.325317 321.955170,479.879333 
	C305.757690,476.720154 297.803528,465.389984 293.774994,450.753204 
	C289.603027,435.595306 290.048706,420.099091 292.141144,404.629639 
	C292.230133,403.971741 292.515961,403.329437 292.535095,402.674744 
	C292.921021,389.481415 295.155029,391.782349 305.046844,391.804169 
	C307.786713,391.810211 310.665009,391.250854 313.678680,392.788391 
	C312.801117,395.737335 311.860291,398.535492 311.137451,401.388885 
	C307.405090,416.122101 306.528534,430.923737 310.320709,445.796814 
	C311.358582,449.867371 312.946198,453.730225 315.603119,457.015076 
	C316.992279,458.732574 318.217529,461.609894 321.015564,460.457855 
	C323.836273,459.296509 325.203522,456.458130 324.766174,453.449127 
	C324.220062,449.691467 323.954132,445.941101 326.201996,442.835480 
	C329.974365,437.623627 333.796570,432.360870 339.730103,428.670563 
z"/>
<path fill="#000000" opacity="1.000000" stroke="none" 
	d="
M660.242798,332.224121 
	C663.301086,330.550415 663.026489,327.973206 663.051941,325.460236 
	C663.125061,318.240204 671.305664,306.745789 678.195190,304.673492 
	C682.350525,303.423584 683.556030,299.601440 685.785889,296.798279 
	C688.367249,297.250702 689.208191,299.184906 690.205811,300.844727 
	C699.903442,316.980347 706.093262,334.475800 710.399658,352.724762 
	C711.504578,357.407013 708.631653,357.202728 705.639221,357.206573 
	C681.994385,357.237000 658.349426,357.253967 634.704712,357.328918 
	C631.885559,357.337860 629.059021,357.588501 626.251160,357.875732 
	C623.466553,358.160583 621.049438,357.552979 618.964233,355.792175 
	C619.131042,355.226318 619.169617,354.684692 619.317261,354.653107 
	C628.226990,352.747162 634.286560,346.836731 640.238892,340.451935 
	C643.825562,336.604645 649.152771,335.470947 654.161682,334.145752 
	C656.089111,333.635803 657.980225,332.988647 660.242798,332.224121 
z"/>
<path fill="#000000" opacity="1.000000" stroke="none" 
	d="
M437.393555,569.701477 
	C427.098511,564.445374 418.299255,557.563354 408.963745,551.507935 
	C401.854767,546.896667 402.108307,540.379700 402.626556,533.675964 
	C402.893188,530.226868 406.108673,528.554932 409.291748,528.993164 
	C420.471313,530.532288 429.161987,524.820129 438.013794,519.587646 
	C440.362427,518.199280 442.305023,516.123901 445.578644,513.417847 
	C454.111603,541.161621 468.161682,565.092102 487.099670,586.555725 
	C469.455048,584.078369 453.401520,577.539917 437.393555,569.701477 
z"/>
<path fill="#000000" opacity="1.000000" stroke="none" 
	d="
M227.336609,784.107056 
	C232.392731,786.026611 237.071472,787.753052 241.677582,789.655396 
	C245.563370,791.260254 247.012985,793.956299 244.956268,798.007874 
	C242.867218,802.123291 241.608002,806.543823 240.541718,812.014832 
	C233.790833,805.586731 225.580124,803.742798 217.773438,800.877075 
	C223.053101,804.247742 228.216660,807.821472 233.648117,810.926575 
	C238.229782,813.545898 240.859360,817.002319 241.188583,822.383728 
	C241.367264,825.304504 242.288696,828.179810 242.910385,831.249939 
	C238.981522,833.185791 235.262955,831.975708 231.582626,831.412231 
	C209.948853,828.099854 196.719009,814.908264 189.031967,795.190796 
	C188.080505,792.750305 188.437759,791.375916 191.168488,790.253235 
	C202.655075,785.530762 214.207047,781.528625 227.336609,784.107056 
z"/>
<path fill="#000000" opacity="1.000000" stroke="none" 
	d="
M255.769455,741.210693 
	C263.025696,748.797729 263.025604,748.797668 257.612915,757.218262 
	C257.432709,757.498596 257.259827,757.783569 257.079041,758.063477 
	C252.461319,765.210693 252.456604,765.214783 246.824097,758.842102 
	C243.049805,754.571960 238.076447,751.952332 233.244705,749.084290 
	C237.242249,753.652161 241.220581,758.237000 245.242905,762.782959 
	C248.999588,767.028687 249.888199,771.336548 247.598663,776.950195 
	C243.689117,786.535706 243.277252,786.983704 233.774948,782.144409 
	C219.491135,774.869934 213.570724,762.066223 210.792130,747.237732 
	C210.119507,743.648315 209.999329,739.948547 209.223648,736.387024 
	C208.444992,732.812012 209.669220,730.755188 213.150940,730.373718 
	C228.554459,728.686401 243.027832,730.896545 255.769455,741.210693 
z"/>
<path fill="#000000" opacity="1.000000" stroke="none" 
	d="
M317.000000,609.300171 
	C308.673553,609.291809 300.845612,609.186157 293.021240,609.307861 
	C287.914886,609.387207 284.348328,607.142639 282.296875,602.640991 
	C280.147858,597.925171 281.920013,593.933228 285.087189,590.294312 
	C286.617767,588.535706 288.424133,587.700012 290.760590,587.701111 
	C314.239410,587.712524 337.718475,587.631042 361.196930,587.715759 
	C366.495514,587.734863 369.789886,591.358032 371.774323,595.666321 
	C373.486389,599.383240 372.217804,603.114014 369.527313,606.315430 
	C367.622681,608.581787 365.304504,609.186218 362.460022,609.180359 
	C347.473511,609.149414 332.486694,609.246582 317.000000,609.300171 
z"/>
<path fill="#000000" opacity="1.000000" stroke="none" 
	d="
M780.940430,757.069580 
	C790.135559,768.025269 796.674072,779.844177 798.973145,794.326721 
	C787.643311,793.582397 777.034119,794.848267 766.458008,793.389038 
	C763.773254,793.018616 762.285583,791.970703 761.745117,789.219910 
	C758.544800,772.931763 755.847839,756.464294 746.053955,742.371094 
	C745.519409,741.601929 745.092407,740.590210 746.012146,738.645691 
	C760.357422,739.068420 770.517883,747.960327 780.940430,757.069580 
z"/>
<path fill="#000000" opacity="1.000000" stroke="none" 
	d="
M617.472412,795.179749 
	C621.290955,795.683777 624.752380,796.199280 628.231812,796.396729 
	C631.789551,796.598572 632.754272,794.076111 632.860474,791.167603 
	C633.026428,786.624634 635.237183,785.684753 639.118469,787.319153 
	C639.425171,787.448364 639.746826,787.541443 640.057495,787.661804 
	C650.725769,791.792542 650.726440,791.793030 647.153137,802.389282 
	C646.993652,802.862366 646.751526,803.311646 646.630005,803.792786 
	C644.730408,811.317810 644.819214,811.143127 637.545837,807.591187 
	C631.418823,804.599060 625.065674,802.068970 618.801697,799.359680 
	C618.080383,799.047729 617.288818,798.898315 616.397827,799.000854 
	C624.179443,802.816162 631.419189,807.389221 638.443359,812.358337 
	C642.418457,815.170288 645.585266,818.025574 645.558289,823.527344 
	C645.545166,826.209290 647.073792,828.898743 647.895081,831.554260 
	C631.681152,841.008362 594.874573,814.787109 593.522217,792.339783 
	C600.004700,793.341614 606.088867,795.208191 612.550476,797.534302 
	C612.697998,794.246338 614.607117,793.989929 617.472412,795.179749 
z"/>
<path fill="#000000" opacity="1.000000" stroke="none" 
	d="
M337.430908,739.676392 
	C356.361816,744.910889 371.984100,754.346619 381.508759,771.812927 
	C385.148071,778.486694 388.044586,785.594177 388.444122,794.014099 
	C377.770355,794.000366 367.411652,795.690613 357.023621,793.468689 
	C354.374023,792.901978 353.076996,791.608521 352.602142,788.906494 
	C351.395813,782.041931 349.936523,775.221924 348.586365,768.382568 
	C346.812927,759.398621 342.370239,751.604736 337.700195,743.909668 
	C336.367249,741.713257 336.380737,741.705078 337.430908,739.676392 
z"/>
<path fill="#000000" opacity="1.000000" stroke="none" 
	d="
M446.505737,810.417053 
	C436.701630,823.701294 423.749573,830.514465 407.738403,831.790039 
	C404.954742,832.011780 403.764404,831.263184 404.087280,828.190430 
	C406.056671,809.446655 419.781067,794.267334 438.564667,789.788208 
	C443.483307,788.615295 446.839508,784.428650 451.030914,781.805847 
	C452.396881,780.951172 453.375763,779.360474 456.221344,780.083130 
	C456.355988,791.079712 451.908356,800.707031 446.505737,810.417053 
z"/>
<path fill="#000000" opacity="1.000000" stroke="none" 
	d="
M728.999756,804.248657 
	C710.095032,803.714050 691.668091,804.459656 673.274658,803.295349 
	C672.649902,803.255798 672.044434,802.912415 671.437622,802.713196 
	C673.309082,795.774109 697.597473,786.874939 713.455750,787.183044 
	C726.604309,787.438477 748.112427,797.216492 749.846741,804.250977 
	C742.978699,804.250977 736.239014,804.250977 728.999756,804.248657 
z"/>
<path fill="#000000" opacity="1.000000" stroke="none" 
	d="
M704.178040,771.685608 
	C698.366272,772.288269 692.910400,772.733032 687.661011,774.369751 
	C682.680725,775.922668 677.755920,777.653564 672.691040,779.344849 
	C672.156128,767.020142 708.007080,737.280090 721.148499,739.859985 
	C712.418701,749.074341 708.498596,760.273315 704.178040,771.685608 
z"/>
<path fill="#000000" opacity="1.000000" stroke="none" 
	d="
M642.430969,784.646973 
	C632.733154,780.238342 625.132996,774.158813 621.066528,764.364197 
	C618.712402,758.693970 619.556885,757.255066 625.694153,756.704285 
	C630.875366,756.239258 631.618286,755.759338 633.157471,751.882202 
	C640.797974,752.667358 653.718994,764.416016 654.039734,771.596985 
	C654.263977,776.617859 651.874084,781.373047 649.409241,785.585022 
	C647.767578,788.390320 645.065979,784.949768 642.430969,784.646973 
z"/>
<path fill="#000000" opacity="1.000000" stroke="none" 
	d="
M303.643738,754.583862 
	C301.778412,758.891052 299.510834,762.719116 298.502289,766.854248 
	C297.346832,771.591614 294.925873,773.615662 290.200470,774.099854 
	C282.969116,774.840576 276.510925,777.929382 270.376099,781.715881 
	C268.991455,782.570435 267.715149,783.731140 265.913055,783.704102 
	C266.581268,772.965027 294.006622,740.707825 313.068787,739.825256 
	C308.983765,744.633423 305.555359,748.977783 303.643738,754.583862 
z"/>
<path fill="#000000" opacity="1.000000" stroke="none" 
	d="
M676.101074,369.879700 
	C686.890198,370.037476 697.195984,369.230591 707.506958,370.251892 
	C711.658875,370.663147 713.047424,372.471802 713.422729,376.535461 
	C713.973999,382.501984 714.520630,388.441071 714.311707,394.431885 
	C714.250000,396.200256 714.596863,398.102600 712.553345,400.131775 
	C698.648926,386.482330 682.295410,376.808594 663.930725,370.270386 
	C667.956177,368.758240 671.806396,370.403290 676.101074,369.879700 
z"/>
<path fill="#000000" opacity="1.000000" stroke="none" 
	d="
M752.333618,763.854187 
	C754.659668,771.339783 756.552246,778.495667 756.477905,786.464600 
	C751.063843,784.933228 747.805481,780.408569 743.028442,779.163208 
	C734.581909,776.961426 732.732971,771.521851 733.523682,763.570984 
	C734.196228,756.808716 733.636414,749.928162 733.736145,743.101624 
	C733.761169,741.389160 733.218811,739.079346 735.601685,738.485535 
	C737.470581,738.019653 738.536255,739.690186 739.587524,740.985291 
	C745.085754,747.757996 749.710876,755.022095 752.333618,763.854187 
z"/>
<path fill="#000000" opacity="1.000000" stroke="none" 
	d="
M342.937561,761.285156 
	C345.586517,769.842773 348.830078,777.898376 348.197205,786.758057 
	C345.286133,787.432434 343.796234,785.588318 342.202393,784.299988 
	C338.411377,781.235962 334.378326,778.530884 329.762421,777.031555 
	C326.505096,775.973633 325.888855,773.787048 325.870850,770.943420 
	C325.812805,761.782227 325.721283,752.621033 325.725342,743.459839 
	C325.726013,741.897827 325.174683,739.819519 327.251129,739.140991 
	C329.266449,738.482422 330.865509,739.835144 331.951782,741.302246 
	C335.827606,746.536743 338.875153,752.270996 341.634460,758.158630 
	C342.057800,759.061951 342.406036,760.000488 342.937561,761.285156 
z"/>
<path fill="#000000" opacity="1.000000" stroke="none" 
	d="
M776.448730,826.921753 
	C779.624756,833.495178 778.811157,839.362732 774.320068,844.442688 
	C770.598999,848.651611 765.651367,848.947937 760.495483,847.482178 
	C754.134155,845.673706 751.458496,842.257568 750.831604,835.153687 
	C750.326416,829.428772 753.301331,824.311462 758.588684,821.810486 
	C763.709167,819.388367 770.643311,820.399597 774.453674,824.187134 
	C775.153442,824.882629 775.650818,825.781616 776.448730,826.921753 
M759.644409,835.829346 
	C760.888489,838.701538 762.797302,840.744812 766.152405,839.535217 
	C769.030334,838.497681 769.313904,835.897156 768.650208,833.301147 
	C768.034607,830.893433 766.638245,828.997925 763.823486,829.184448 
	C760.159912,829.427124 759.253967,831.899963 759.644409,835.829346 
z"/>
<path fill="#000000" opacity="1.000000" stroke="none" 
	d="
M693.121216,825.985413 
	C697.681519,833.377380 696.249390,841.249146 689.761230,846.057312 
	C683.833618,850.450195 677.512085,849.828186 672.387451,844.347534 
	C666.967041,838.550537 666.663940,830.555603 671.651611,824.941772 
	C676.981506,818.942749 685.701050,819.250671 693.121216,825.985413 
M686.562317,833.917603 
	C685.334167,830.622620 683.358582,828.305054 679.495361,829.607300 
	C676.943909,830.467407 676.073120,832.808716 676.614746,835.248901 
	C677.155762,837.686707 678.351013,840.344788 681.255859,840.351685 
	C684.659851,840.359863 686.739441,838.329956 686.562317,833.917603 
z"/>
<path fill="#000000" opacity="1.000000" stroke="none" 
	d="
M759.398926,851.629517 
	C766.384888,853.323242 772.241150,852.508484 776.637817,846.648987 
	C779.325745,843.066772 783.195190,842.775146 787.408081,842.663452 
	C783.021179,855.212646 758.003784,875.633179 744.634583,873.523376 
	C744.069031,871.523621 745.315735,870.045532 746.180481,868.497620 
	C749.011780,863.429504 751.984924,858.438782 754.728210,853.324280 
	C755.771729,851.378723 756.890869,850.463379 759.398926,851.629517 
z"/>
<path fill="#000000" opacity="1.000000" stroke="none" 
	d="
M700.346802,867.820435 
	C693.991577,864.504883 689.880737,859.279785 684.535339,854.048645 
	C690.422302,851.340027 695.205383,848.228210 699.771118,844.738892 
	C701.730774,843.241211 704.640625,843.321045 705.414185,846.410767 
	C707.713379,855.594116 713.460083,862.732605 718.848206,870.117798 
	C719.428528,870.913269 719.851868,871.844238 720.221802,872.763062 
	C720.390015,873.180908 720.250305,873.722778 720.250305,874.626709 
	C713.031921,874.224976 706.977600,870.717773 700.346802,867.820435 
z"/>
<path fill="#000000" opacity="1.000000" stroke="none" 
	d="
M264.165405,838.216064 
	C262.666473,826.583435 270.619965,818.547180 280.730194,820.950745 
	C286.128510,822.234070 289.472504,826.282166 290.195099,832.408508 
	C290.869843,838.129211 287.208374,845.029785 282.248413,847.385254 
	C277.766571,849.513672 271.462158,848.119446 267.610992,844.108459 
	C266.098297,842.532959 264.898926,840.745483 264.165405,838.216064 
M281.223907,836.607605 
	C281.895966,834.988098 281.996918,833.324890 281.126465,831.794434 
	C279.903961,829.645020 278.143402,827.923584 275.489288,828.772156 
	C272.957581,829.581604 272.018555,831.762024 272.374298,834.356323 
	C272.680847,836.592102 273.615936,838.639160 275.816467,839.486694 
	C278.030670,840.339539 279.607880,838.992493 281.223907,836.607605 
z"/>
<path fill="#000000" opacity="1.000000" stroke="none" 
	d="
M322.251709,772.584717 
	C321.686127,775.357422 320.034241,775.293152 318.325806,774.748901 
	C314.140442,773.415710 309.838867,773.147461 305.495728,773.144104 
	C303.196625,773.142334 301.412628,772.585266 302.102905,769.686829 
	C304.793976,758.386780 310.515900,748.775818 318.511444,740.454895 
	C318.805908,740.148499 319.426758,740.155823 320.929688,739.710510 
	C323.495789,750.556213 321.219330,761.467896 322.251709,772.584717 
z"/>
<path fill="#000000" opacity="1.000000" stroke="none" 
	d="
M365.717712,834.594360 
	C364.016205,843.212891 358.549133,847.877258 351.337158,847.193970 
	C344.593109,846.555115 339.698242,840.805359 339.612152,833.421204 
	C339.524109,825.871704 344.508911,820.967346 352.951782,820.296997 
	C360.105103,819.729065 364.559235,823.554321 365.636780,831.231567 
	C365.774017,832.209473 365.743622,833.210938 365.717712,834.594360 
M348.129791,834.262695 
	C348.689484,837.653137 350.432281,839.470093 353.980560,838.164734 
	C356.567841,837.212952 357.969330,835.169861 357.576141,832.327393 
	C357.248810,829.961121 355.869202,828.213928 353.352325,828.241638 
	C350.079071,828.277527 348.089233,829.976318 348.129791,834.262695 
z"/>
<path fill="#000000" opacity="1.000000" stroke="none" 
	d="
M282.078278,857.963989 
	C281.127411,856.447571 279.652466,855.605591 279.813110,853.177734 
	C285.565399,851.735596 290.632965,848.527832 295.438812,842.132324 
	C297.851624,855.494934 307.428192,863.060974 312.503174,873.589294 
	C300.282623,872.449951 289.722717,868.452393 282.078278,857.963989 
z"/>
<path fill="#000000" opacity="1.000000" stroke="none" 
	d="
M720.476562,772.398071 
	C709.475525,772.012939 709.505188,772.022766 712.820312,762.023376 
	C715.428589,754.156006 720.230103,747.594177 725.113586,741.073730 
	C725.924622,739.990723 726.841797,739.016968 729.192871,739.458862 
	C729.192871,750.537415 729.192871,761.763733 729.192871,772.938477 
	C725.985779,773.929993 723.458374,773.080688 720.476562,772.398071 
z"/>
<path fill="#000000" opacity="1.000000" stroke="none" 
	d="
M313.993713,867.992310 
	C307.769257,860.945557 303.169830,853.418762 300.682343,844.278137 
	C307.465088,844.278137 313.698120,844.211060 319.927765,844.326050 
	C321.458588,844.354309 322.135956,845.643860 322.177765,847.148254 
	C322.430634,856.249878 321.940552,865.356567 322.901550,874.747498 
	C317.884918,874.702637 317.031219,870.207458 313.993713,867.992310 
z"/>
<path fill="#000000" opacity="1.000000" stroke="none" 
	d="
M716.923950,843.992493 
	C731.097473,845.578308 729.130676,842.171021 729.280090,856.949524 
	C729.341309,863.002075 729.290161,869.055725 729.290161,875.198059 
	C721.928101,874.188904 709.370422,853.764282 709.718384,844.656128 
	C711.832947,843.260803 714.206726,844.135864 716.923950,843.992493 
z"/>
<path fill="#000000" opacity="1.000000" stroke="none" 
	d="
M732.672668,868.831177 
	C732.671448,862.189697 732.837280,856.018494 732.614258,849.861389 
	C732.471375,845.917236 734.076782,844.430908 737.886536,844.599976 
	C740.875732,844.732727 743.879272,844.511108 746.876831,844.491577 
	C750.701843,844.466614 752.013000,846.635132 751.161743,850.037354 
	C749.152954,858.065125 745.244751,865.210938 740.430664,871.877197 
	C739.003723,873.853149 736.984863,875.508362 734.539429,874.876343 
	C731.660522,874.132141 733.060425,871.272400 732.672668,868.831177 
z"/>
<path fill="#000000" opacity="1.000000" stroke="none" 
	d="
M331.818359,871.767090 
	C330.407074,873.178528 329.283112,874.883728 327.417969,874.088501 
	C325.650452,873.334900 325.731293,871.355652 325.717865,869.698425 
	C325.670624,863.872131 325.664490,858.045349 325.684326,852.218811 
	C325.710968,844.405640 331.423309,840.909241 338.514099,844.539612 
	C342.052155,846.351013 343.994415,848.967224 342.507660,853.484009 
	C340.271667,860.277039 336.433075,866.017761 331.818359,871.767090 
z"/>
<path fill="#000000" opacity="1.000000" stroke="none" 
	d="
M638.864319,862.742737 
	C638.681335,859.402283 640.359009,857.925354 643.019897,857.883118 
	C649.655273,857.777527 656.300415,857.755798 662.929504,858.012085 
	C666.005005,858.130981 667.705261,860.441956 667.868958,863.358032 
	C668.061401,866.789062 665.050049,866.638794 662.888672,866.835938 
	C656.767273,867.394348 650.622803,867.454041 644.508972,866.622070 
	C642.161499,866.302612 639.882935,865.763184 638.864319,862.742737 
z"/>
<path fill="#000000" opacity="1.000000" stroke="none" 
	d="
M783.928589,880.406982 
	C784.995178,877.035156 787.327942,875.833740 790.164368,875.777039 
	C796.825500,875.644043 803.490662,875.704834 810.154236,875.710693 
	C812.346497,875.712646 814.306030,876.493713 814.697266,878.788513 
	C815.147034,881.427063 813.204468,882.763672 810.968323,883.279541 
	C802.746582,885.176331 794.397766,884.188660 786.097534,884.094727 
	C784.260254,884.073975 783.737732,882.513733 783.928589,880.406982 
z"/>
<path fill="#000000" opacity="1.000000" stroke="none" 
	d="
M650.429932,881.928894 
	C650.535767,878.918030 652.058289,877.945984 654.576233,877.629944 
	C662.684692,876.612366 670.808167,876.762207 678.936279,877.045044 
	C681.586792,877.137207 684.194153,877.863892 684.034424,881.162659 
	C683.895874,884.027466 681.347839,884.198486 679.167480,884.225098 
	C671.201233,884.322571 663.233826,884.342773 655.266846,884.356750 
	C653.422180,884.359985 651.565430,884.250610 650.429932,881.928894 
z"/>
<path fill="#000000" opacity="1.000000" stroke="none" 
	d="
M247.837753,866.365479 
	C243.711441,866.302124 240.050537,866.392761 236.414200,866.135864 
	C233.680740,865.942810 231.636368,864.647278 231.757843,861.438049 
	C231.879364,858.227600 234.198883,857.769165 236.642563,857.780762 
	C242.783035,857.809875 248.925674,857.891296 255.061951,858.107300 
	C258.610870,858.232178 260.730499,860.012268 260.205658,863.840515 
	C259.688934,867.609436 257.168488,867.483337 254.239929,866.857117 
	C252.317703,866.446106 250.292694,866.515686 247.837753,866.365479 
z"/>
<path fill="#000000" opacity="1.000000" stroke="none" 
	d="
M806.941040,866.254150 
	C806.138977,866.273193 805.795959,866.337769 805.476685,866.277161 
	C803.015686,865.809753 799.253601,867.807495 798.869873,863.255005 
	C798.509766,858.983643 801.254272,857.255127 805.072815,857.262390 
	C811.700500,857.274963 818.328857,857.504578 824.954468,857.719299 
	C826.834229,857.780212 828.307129,858.716309 827.958252,860.814087 
	C827.539917,863.329773 825.946716,865.038940 823.291199,865.243164 
	C818.003540,865.649902 812.705139,865.916870 806.941040,866.254150 
z"/>
<path fill="#000000" opacity="1.000000" stroke="none" 
	d="
M271.110962,883.517944 
	C262.954346,884.800842 255.157532,884.039246 247.380508,884.186829 
	C247.053970,884.192993 246.679535,884.178833 246.405106,884.030396 
	C244.211761,882.844910 240.383087,882.856323 240.794861,879.482849 
	C241.173141,876.384094 244.621338,876.869812 246.990936,876.775818 
	C253.944122,876.500366 260.925476,875.974304 267.853485,876.899841 
	C272.990326,877.586060 274.039551,879.684692 271.110962,883.517944 
z"/>
<path fill="#000000" opacity="1.000000" stroke="none" 
	d="
M410.372406,858.119263 
	C413.645569,858.663513 415.522827,860.177368 415.069305,863.215942 
	C414.657318,865.976318 412.187775,866.155945 410.018890,866.186462 
	C403.544403,866.277710 397.066986,866.315308 390.593231,866.213440 
	C388.666656,866.183228 386.189514,866.068970 386.281464,863.278503 
	C386.363617,860.785889 387.597321,858.893005 390.549194,858.711365 
	C397.006836,858.314026 403.451752,857.628540 410.372406,858.119263 
z"/>
<path fill="#000000" opacity="1.000000" stroke="none" 
	d="
M374.814453,876.213135 
	C381.668579,875.321960 388.129730,875.770264 394.579773,875.749023 
	C396.936432,875.741272 398.893524,876.650085 399.158630,879.308350 
	C399.386932,881.597961 397.604095,882.845764 395.832733,882.960754 
	C386.820648,883.545898 377.795563,883.607056 368.688782,883.071899 
	C368.399261,878.375000 371.234009,877.197632 374.814453,876.213135 
z"/>
<path fill="#000000" opacity="1.000000" stroke="none" 
	d="
M659.031860,762.041870 
	C653.657104,766.283997 653.494385,760.121521 651.404846,758.402466 
	C649.385742,756.741272 650.410889,754.833618 652.900635,754.027466 
	C656.451050,752.877808 657.497742,749.411987 659.461426,746.824646 
	C660.894653,744.936279 662.262695,743.236450 664.669006,745.234375 
	C666.676880,746.901611 669.127319,748.527893 666.629944,751.732483 
	C664.079956,755.004456 661.712585,758.418701 659.031860,762.041870 
z"/>
<path fill="#000000" opacity="1.000000" stroke="none" 
	d="
M821.617920,792.236572 
	C825.415222,792.459229 828.820862,791.085144 833.714355,792.467712 
	C827.734192,797.339844 822.578979,801.539795 817.202393,805.920166 
	C814.489502,798.221252 815.653076,794.718811 821.617920,792.236572 
z"/>
<path fill="#000000" opacity="1.000000" stroke="none" 
	d="
M305.334442,557.934814 
	C312.500946,557.416870 319.313354,558.843201 326.235992,556.222107 
	C326.225616,559.813049 324.679352,561.643616 322.046173,562.175354 
	C314.224152,563.754761 306.520813,563.454102 298.682861,560.532593 
	C300.491119,557.574890 302.858704,558.262085 305.334442,557.934814 
z"/>
<path fill="#000000" opacity="1.000000" stroke="none" 
	d="
M375.985718,802.171387 
	C374.554321,801.419067 373.121826,801.199036 372.489258,798.987000 
	C377.669617,798.746521 382.531860,798.456726 387.398346,798.333923 
	C388.861084,798.296997 389.970062,799.307678 390.168854,800.766357 
	C390.611908,804.017334 391.755035,807.249207 390.573059,811.348450 
	C385.960175,807.730164 381.709076,804.040039 375.985718,802.171387 
z"/>
<path fill="#000000" opacity="1.000000" stroke="none" 
	d="
M786.113037,801.165405 
	C784.597473,799.986755 784.333130,799.073853 786.242615,798.770447 
	C788.193665,798.460449 790.171936,798.299255 792.144226,798.152039 
	C794.484009,797.977600 797.329468,796.139771 799.028015,798.509338 
	C800.890808,801.108032 800.737976,804.373413 799.177368,807.994507 
	C794.764343,805.689697 790.593079,803.511169 786.113037,801.165405 
z"/>
<path fill="#000000" opacity="1.000000" stroke="none" 
	d="
M588.709839,335.251831 
	C586.625793,333.454987 584.803650,331.886047 582.257690,329.693848 
	C585.657166,329.516602 588.147034,329.279572 590.635742,329.291565 
	C592.563538,329.300842 593.583069,330.604126 593.889160,332.411591 
	C594.137146,333.875702 594.435913,335.543335 593.195862,336.609131 
	C591.441650,338.116821 590.231812,336.452087 588.709839,335.251831 
z"/>
<path fill="#000000" opacity="1.000000" stroke="none" 
	d="
M408.224304,803.039490 
	C404.621216,802.080750 405.623901,799.605042 406.406067,797.599976 
	C407.144257,795.707581 409.140198,795.616638 413.224548,796.894104 
	C412.710205,799.732300 410.345917,801.121948 408.224304,803.039490 
z"/>
<path fill="#000000" opacity="1.000000" stroke="none" 
	d="
M325.327515,792.574951 
	C338.125305,797.968384 339.394958,798.797180 342.150665,803.737427 
	C316.900269,803.737427 291.906036,803.737427 266.616608,803.737427 
	C272.400238,791.060608 305.893372,784.924316 325.327515,792.574951 
z"/>
</svg>